0
SECTION
2
HEADER
9
$INSUNITS
70
4
9
$ACADVER
1
AC1014
9
$HANDSEED
5
FFFF
0
ENDSEC
0
SECTION
2
TABLES
0
TABLE
2
VPORT
5
8
100
AcDbSymbolTable
0
ENDTAB
0
TABLE
2
LTYPE
5
5
100
AcDbSymbolTable
0
LTYPE
5
14
100
AcDbSymbolTableRecord
100
AcDbLinetypeTableRecord
2
BYBLOCK
70
0
0
LTYPE
5
15
100
AcDbSymbolTableRecord
100
AcDbLinetypeTableRecord
2
BYLAYER
70
0
0
ENDTAB
0
TABLE
2
LAYER
5
2
100
AcDbSymbolTable
70
2
0
LAYER
5
50
100
AcDbSymbolTableRecord
100
AcDbLayerTableRecord
2
0
70
0
6
CONTINUOUS
0
ENDTAB
0
TABLE
2
STYLE
5
3
100
AcDbSymbolTable
70
1
0
STYLE
5
11
100
AcDbSymbolTableRecord
100
AcDbTextStyleTableRecord
2
STANDARD
70
0
0
ENDTAB
0
TABLE
2
VIEW
5
6
100
AcDbSymbolTable
70
0
0
ENDTAB
0
TABLE
2
UCS
5
7
100
AcDbSymbolTable
70
0
0
ENDTAB
0
TABLE
2
APPID
5
9
100
AcDbSymbolTable
70
2
0
APPID
5
12
100
AcDbSymbolTableRecord
100
AcDbRegAppTableRecord
2
ACAD
70
0
0
ENDTAB
0
TABLE
2
DIMSTYLE
5
A
100
AcDbSymbolTable
70
1
0
ENDTAB
0
TABLE
2
BLOCK_RECORD
5
1
100
AcDbSymbolTable
70
1
0
BLOCK_RECORD
5
1F
100
AcDbSymbolTableRecord
100
AcDbBlockTableRecord
2
*MODEL_SPACE
0
BLOCK_RECORD
5
1B
100
AcDbSymbolTableRecord
100
AcDbBlockTableRecord
2
*PAPER_SPACE
0
ENDTAB
0
ENDSEC
0
SECTION
2
BLOCKS
0
BLOCK
5
20
100
AcDbEntity
100
AcDbBlockBegin
2
*MODEL_SPACE
0
ENDBLK
5
21
100
AcDbEntity
100
AcDbBlockEnd
0
BLOCK
5
1C
100
AcDbEntity
100
AcDbBlockBegin
2
*PAPER_SPACE
0
ENDBLK
5
1D
100
AcDbEntity
100
AcDbBlockEnd
0
ENDSEC
0
SECTION
2
ENTITIES
0
LINE
5
100
100
AcDbEntity
8
0
100
AcDbLine
10
-50
20
0
30
0
11
-50
21
30
31
0
0
LINE
5
101
100
AcDbEntity
8
0
100
AcDbLine
10
-50
20
30
30
0
11
-43.205289854530982
21
30
31
0
0
LINE
5
102
100
AcDbEntity
8
0
100
AcDbLine
10
-43.205289854530982
20
30
30
0
11
-35
21
10
31
0
0
LINE
5
103
100
AcDbEntity
8
0
100
AcDbLine
10
-50
20
0
30
0
11
-43.205289854530982
21
0
31
0
0
LINE
5
104
100
AcDbEntity
8
0
100
AcDbLine
10
-43.205289854530982
20
0
30
0
11
-43.205289854530982
21
15
31
0
0
LINE
5
105
100
AcDbEntity
8
0
100
AcDbLine
10
-43.205289854530982
20
15
30
0
11
-38.592284587585205
21
3.7560211796821119
31
0
0
LINE
5
106
100
AcDbEntity
8
0
100
AcDbLine
10
-38.592284587585205
20
3.7560211796821119
30
0
11
-35
21
3.7560211796821119
31
0
0
LINE
5
107
100
AcDbEntity
8
0
100
AcDbLine
10
-26.794710145469018
20
30
30
0
11
-35
21
10
31
0
0
LINE
5
108
100
AcDbEntity
8
0
100
AcDbLine
10
-20
20
30
30
0
11
-26.794710145469018
21
30
31
0
0
LWPOLYLINE
5
109
100
AcDbEntity
8
0
100
AcDbPolyline
90
11
70
1
43
0.0
10
-20
20
0
10
-20
20
30
10
-12.989884551440296
20
30
10
-12.989884551440296
20
15
10
0
20
30
10
7.0278214618572665
20
30
10
-6.494942275720148
20
14.38466059799042
10
7.0278214618572665
20
0.18811227055865576
10
0
20
0
10
-12.989884551440296
20
13.029659524372189
10
-12.989884551440296
20
0
0
LINE
5
110
100
AcDbEntity
8
0
100
AcDbLine
10
-20
20
0
30
0
11
-26.794710145469018
21
0
31
0
0
LINE
5
111
100
AcDbEntity
8
0
100
AcDbLine
10
-26.794710145469018
20
0
30
0
11
-26.794710145469018
21
15
31
0
0
LINE
5
112
100
AcDbEntity
8
0
100
AcDbLine
10
-26.794710145469018
20
15
30
0
11
-31.407715412414795
21
3.7560211796821119
31
0
0
LINE
5
113
100
AcDbEntity
8
0
100
AcDbLine
10
-31.407715412414795
20
3.7560211796821119
30
0
11
-35
21
3.7560211796821119
31
0
0
LWPOLYLINE
5
114
100
AcDbEntity
8
0
100
AcDbPolyline
90
21
70
1
43
0.0
10
-39.484132790824226
20
0.034864115975359322
10
-35
20
0.034864115975359322
10
-30.51586720917577
20
0.034864115975359322
10
-30.51586720917577
20
-3.7211570637067526
10
-20
20
-3.7211570637067526
10
-9.2687274877335426
20
-3.7211570637067526
10
-9.2687274877335426
20
4.0265344545894317
10
-1.5032440260002233
20
-3.7627268854822464
10
15.496853624919618
20
-3.3076887223487961
10
-1.4692497030684804
20
14.50376687194481
10
15.172862294996106
20
33.721157063706755
10
-1.7000540790952035
20
33.721157063706748
10
-9.2687274877335408
20
24.981271756797916
10
-9.2687274877335426
20
33.721157063706755
10
-20
20
33.721157063706755
10
-29.290202251046495
20
33.721157063706755
10
-35
20
19.803799236790887
10
-40.709797748953498
20
33.721157063706755
10
-53.721157063706748
20
33.721157063706755
10
-53.721157063706748
20
-3.7211570637067526
10
-39.484132790824226
20
-3.7211570637067526
0
CIRCLE
5
115
100
AcDbEntity
8
0
100
AcDbCircle
10
-50
20
30
30
0
40
2.073553066861118
210
0
220
0
230
1
0
ENDSEC
0
SECTION
2
OBJECTS
0
DICTIONARY
5
C
100
AcDbDictionary
3
ACAD_GROUP
350
D
3
ACAD_MLINESTYLE
350
17
0
DICTIONARY
5
D
100
AcDbDictionary
0
DICTIONARY
5
1A
330
C
100
AcDbDictionary
0
DICTIONARY
5
17
100
AcDbDictionary
0
ENDSEC
0
EOF
