0
SECTION
2
HEADER
9
$INSUNITS
70
4
9
$ACADVER
1
AC1014
9
$HANDSEED
5
FFFF
0
ENDSEC
0
SECTION
2
TABLES
0
TABLE
2
VPORT
5
8
100
AcDbSymbolTable
0
ENDTAB
0
TABLE
2
LTYPE
5
5
100
AcDbSymbolTable
0
LTYPE
5
14
100
AcDbSymbolTableRecord
100
AcDbLinetypeTableRecord
2
BYBLOCK
70
0
0
LTYPE
5
15
100
AcDbSymbolTableRecord
100
AcDbLinetypeTableRecord
2
BYLAYER
70
0
0
ENDTAB
0
TABLE
2
LAYER
5
2
100
AcDbSymbolTable
70
2
0
LAYER
5
50
100
AcDbSymbolTableRecord
100
AcDbLayerTableRecord
2
0
70
0
6
CONTINUOUS
0
ENDTAB
0
TABLE
2
STYLE
5
3
100
AcDbSymbolTable
70
1
0
STYLE
5
11
100
AcDbSymbolTableRecord
100
AcDbTextStyleTableRecord
2
STANDARD
70
0
0
ENDTAB
0
TABLE
2
VIEW
5
6
100
AcDbSymbolTable
70
0
0
ENDTAB
0
TABLE
2
UCS
5
7
100
AcDbSymbolTable
70
0
0
ENDTAB
0
TABLE
2
APPID
5
9
100
AcDbSymbolTable
70
2
0
APPID
5
12
100
AcDbSymbolTableRecord
100
AcDbRegAppTableRecord
2
ACAD
70
0
0
ENDTAB
0
TABLE
2
DIMSTYLE
5
A
100
AcDbSymbolTable
70
1
0
ENDTAB
0
TABLE
2
BLOCK_RECORD
5
1
100
AcDbSymbolTable
70
1
0
BLOCK_RECORD
5
1F
100
AcDbSymbolTableRecord
100
AcDbBlockTableRecord
2
*MODEL_SPACE
0
BLOCK_RECORD
5
1B
100
AcDbSymbolTableRecord
100
AcDbBlockTableRecord
2
*PAPER_SPACE
0
ENDTAB
0
ENDSEC
0
SECTION
2
BLOCKS
0
BLOCK
5
20
100
AcDbEntity
100
AcDbBlockBegin
2
*MODEL_SPACE
0
ENDBLK
5
21
100
AcDbEntity
100
AcDbBlockEnd
0
BLOCK
5
1C
100
AcDbEntity
100
AcDbBlockBegin
2
*PAPER_SPACE
0
ENDBLK
5
1D
100
AcDbEntity
100
AcDbBlockEnd
0
ENDSEC
0
SECTION
2
ENTITIES
0
LWPOLYLINE
5
100
100
AcDbEntity
8
0
100
AcDbPolyline
90
2
70
1
43
0.0
10
43.482641588809571
20
89.113052525431897
0
SPLINE
5
101
100
AcDbEntity
8
0
100
AcDbSpline
70
4
71
5
72
46
73
40
74
0
42
0.000000001
43
0.0000000001
44
0.0000000001
40
0
40
0
40
0
40
0
40
0
40
0
40
0.028571428571428571
40
0.057142857142857141
40
0.085714285714285715
40
0.11428571428571428
40
0.14285714285714285
40
0.17142857142857143
40
0.20000000000000001
40
0.22857142857142859
40
0.25714285714285717
40
0.28571428571428575
40
0.31428571428571433
40
0.34285714285714292
40
0.3714285714285715
40
0.40000000000000008
40
0.42857142857142866
40
0.45714285714285724
40
0.48571428571428582
40
0.51428571428571435
40
0.54285714285714293
40
0.57142857142857151
40
0.60000000000000009
40
0.62857142857142867
40
0.65714285714285725
40
0.68571428571428583
40
0.71428571428571441
40
0.74285714285714299
40
0.77142857142857157
40
0.80000000000000016
40
0.82857142857142874
40
0.85714285714285732
40
0.8857142857142859
40
0.91428571428571448
40
0.94285714285714306
40
0.97142857142857164
40
1
40
1
40
1
40
1
40
1
40
1
41
1
41
1
41
1
41
1
41
1
41
1
41
1
41
1
41
1
41
1
41
1
41
1
41
1
41
1
41
1
41
1
41
1
41
1
41
1
41
1
41
1
41
1
41
1
41
1
41
1
41
1
41
1
41
1
41
1
41
1
41
1
41
1
41
1
41
1
41
1
41
1
41
1
41
1
41
1
41
1
10
43.660092557626186
20
74.763880771004224
30
0
10
43.824823939475628
20
74.858848124410841
30
0
10
44.151569633795624
20
75.050651772885573
30
0
10
44.633536868080029
20
75.343964069933605
30
0
10
45.259836415897354
20
75.746275697929292
30
0
10
46.015068594240383
20
76.268075683928515
30
0
10
46.741582830083665
20
76.809224441429052
30
0
10
47.437362338167915
20
77.370485319408616
30
0
10
48.099250751697781
20
77.953028697751776
30
0
10
48.722493595264488
20
78.558515650025896
30
0
10
49.301414436064164
20
79.189164304774948
30
0
10
49.830657128924841
20
79.847776908441517
30
0
10
50.306362436713989
20
80.537828000407572
30
0
10
50.727153020028751
20
81.263419760604194
30
0
10
51.095794083909567
20
82.029562787142609
30
0
10
51.417957272371467
20
82.841092827983474
30
0
10
51.699219968192736
20
83.700776937121105
30
0
10
51.942446213076529
20
84.607546730222964
30
0
10
52.145351775916509
20
85.554882490493554
30
0
10
52.29713054859473
20
86.528549616802366
30
0
10
52.378329316703386
20
87.506454434150413
30
0
10
52.366607246956427
20
88.46233001174366
30
0
10
52.241138772581905
20
89.368526462531364
30
0
10
51.987620270912196
20
90.199174700205148
30
0
10
51.602949605585579
20
90.933143795548048
30
0
10
51.100422462338607
20
91.557272682531249
30
0
10
50.504513783103846
20
92.064406253964563
30
0
10
49.845102651954264
20
92.451187045038836
30
0
10
49.152315418416549
20
92.7161085454904
30
0
10
48.450257435131647
20
92.857163363348079
30
0
10
47.754235420897317
20
92.870807817939891
30
0
10
47.073609447778786
20
92.753047658842746
30
0
10
46.413264663747782
20
92.500009257460277
30
0
10
45.775709193857843
20
92.10880688315136
30
0
10
45.162587597022814
20
91.578081708374924
30
0
10
44.574774434133921
20
90.907467419969663
30
0
10
44.125063781324343
20
90.259266529889786
30
0
10
43.799356751178735
20
89.710483900428613
30
0
10
43.587356947135554
20
89.316829536913275
30
0
10
43.482641588809571
20
89.113052525431925
30
0
0
LWPOLYLINE
5
102
100
AcDbEntity
8
0
100
AcDbPolyline
90
2
70
1
43
0.0
10
43.671074582100914
20
102.24653746973584
0
SPLINE
5
103
100
AcDbEntity
8
0
100
AcDbSpline
70
4
71
5
72
51
73
45
74
0
42
0.000000001
43
0.0000000001
44
0.0000000001
40
0
40
0
40
0
40
0
40
0
40
0
40
0.025000000000000001
40
0.050000000000000003
40
0.075000000000000011
40
0.10000000000000001
40
0.125
40
0.14999999999999999
40
0.17499999999999999
40
0.19999999999999998
40
0.22499999999999998
40
0.24999999999999997
40
0.27499999999999997
40
0.29999999999999999
40
0.32500000000000001
40
0.35000000000000003
40
0.37500000000000006
40
0.40000000000000008
40
0.4250000000000001
40
0.45000000000000012
40
0.47500000000000014
40
0.50000000000000011
40
0.52500000000000013
40
0.55000000000000016
40
0.57500000000000018
40
0.6000000000000002
40
0.62500000000000022
40
0.65000000000000024
40
0.67500000000000027
40
0.70000000000000029
40
0.72500000000000031
40
0.75000000000000033
40
0.77500000000000036
40
0.80000000000000038
40
0.8250000000000004
40
0.85000000000000042
40
0.87500000000000044
40
0.90000000000000047
40
0.92500000000000049
40
0.95000000000000051
40
0.97500000000000053
40
1
40
1
40
1
40
1
40
1
40
1
41
1
41
1
41
1
41
1
41
1
41
1
41
1
41
1
41
1
41
1
41
1
41
1
41
1
41
1
41
1
41
1
41
1
41
1
41
1
41
1
41
1
41
1
41
1
41
1
41
1
41
1
41
1
41
1
41
1
41
1
41
1
41
1
41
1
41
1
41
1
41
1
41
1
41
1
41
1
41
1
41
1
41
1
41
1
41
1
41
1
10
44.000000655651093
20
34.000000506639481
30
0
10
43.434614050602072
20
34.255421091220704
30
0
10
42.294880775808224
20
34.806104994172145
30
0
10
40.55840046769486
20
35.751659644304674
30
0
10
38.189279588239408
20
37.251695050221144
30
0
10
35.141307580096857
20
39.518400809984556
30
0
10
32.016715815802435
20
42.152697375259116
30
0
10
28.835798346723159
20
45.104676558325529
30
0
10
25.632954004690227
20
48.288922331768589
30
0
10
22.459894267756134
20
51.576501949086484
30
0
10
19.375831331714494
20
54.826177637764452
30
0
10
16.438606002440473
20
57.912713051028916
30
0
10
13.694805240244873
20
60.758476613547771
30
0
10
11.171757915634689
20
63.358880020661765
30
0
10
8.8649790721624129
20
65.822859847344034
30
0
10
6.7410405536633977
20
68.362349695130334
30
0
10
4.7586203509115865
20
71.2214777950974
30
0
10
2.8856401961595699
20
74.618925692526773
30
0
10
1.1162644724997599
20
78.690188798832523
30
0
10
-0.50752657328946116
20
83.416019683763537
30
0
10
-1.9048347051706884
20
88.643797867358401
30
0
10
-2.97482036935101
20
94.139610237798919
30
0
10
-3.6121249509899829
20
99.62938219622643
30
0
10
-3.7239945466098923
20
104.84496466864412
30
0
10
-3.2461936168604928
20
109.56660707474683
30
0
10
-2.1608632729799622
20
113.67059743650232
30
0
10
-0.51002752945727758
20
117.16508144798824
30
0
10
1.6249952327852502
20
120.13532950849046
30
0
10
4.1412295607634322
20
122.69631136354255
30
0
10
6.9318631360896585
20
124.94559907127366
30
0
10
9.9058012157393431
20
126.90932059334239
30
0
10
13.000709347527554
20
128.51185863022386
30
0
10
16.171869419092509
20
129.63233473138695
30
0
10
19.384693911849173
20
130.14871447158131
30
0
10
22.606392741811185
20
129.98338231170584
30
0
10
25.796616223760349
20
129.15693205450384
30
0
10
28.91011652734672
20
127.76713548281704
30
0
10
31.902485912150453
20
125.94954385627098
30
0
10
34.734385897522856
20
123.84713202955196
30
0
10
37.377479944743413
20
121.57044430529774
30
0
10
39.815852913997276
20
119.18302623686839
30
0
10
41.596673392998014
20
117.2108178941596
30
0
10
42.835818256365286
20
115.70145206597559
30
0
10
43.619079017852471
20
114.68181566146811
30
0
10
44.000000655651093
20
114.16864815557855
30
0
0
SPLINE
5
104
100
AcDbEntity
8
0
100
AcDbSpline
70
4
71
5
72
61
73
55
74
0
42
0.000000001
43
0.0000000001
44
0.0000000001
40
0
40
0
40
0
40
0
40
0
40
0
40
0.02
40
0.040000000000000001
40
0.059999999999999998
40
0.080000000000000002
40
0.10000000000000001
40
0.12000000000000001
40
0.14000000000000001
40
0.16
40
0.17999999999999999
40
0.19999999999999998
40
0.21999999999999997
40
0.23999999999999996
40
0.25999999999999995
40
0.27999999999999997
40
0.29999999999999999
40
0.32000000000000001
40
0.34000000000000002
40
0.36000000000000004
40
0.38000000000000006
40
0.40000000000000008
40
0.4200000000000001
40
0.44000000000000011
40
0.46000000000000013
40
0.48000000000000015
40
0.50000000000000011
40
0.52000000000000013
40
0.54000000000000015
40
0.56000000000000016
40
0.58000000000000018
40
0.6000000000000002
40
0.62000000000000022
40
0.64000000000000024
40
0.66000000000000025
40
0.68000000000000027
40
0.70000000000000029
40
0.72000000000000031
40
0.74000000000000032
40
0.76000000000000034
40
0.78000000000000036
40
0.80000000000000038
40
0.8200000000000004
40
0.84000000000000041
40
0.86000000000000043
40
0.88000000000000045
40
0.90000000000000047
40
0.92000000000000048
40
0.9400000000000005
40
0.96000000000000052
40
0.98000000000000054
40
1
40
1
40
1
40
1
40
1
40
1
41
1
41
1
41
1
41
1
41
1
41
1
41
1
41
1
41
1
41
1
41
1
41
1
41
1
41
1
41
1
41
1
41
1
41
1
41
1
41
1
41
1
41
1
41
1
41
1
41
1
41
1
41
1
41
1
41
1
41
1
41
1
41
1
41
1
41
1
41
1
41
1
41
1
41
1
41
1
41
1
41
1
41
1
41
1
41
1
41
1
41
1
41
1
41
1
41
1
41
1
41
1
41
1
41
1
41
1
41
1
10
44.000000655651093
20
14.190593701722012
30
0
10
43.32454495640954
20
14.547100790864441
30
0
10
41.969194063211162
20
15.275172511781667
30
0
10
39.922848434437505
20
16.412452374610655
30
0
10
37.167738629152183
20
18.019231931430287
30
0
10
33.68204209677684
20
20.179420660184583
30
0
10
30.162663028211433
20
22.493900243015613
30
0
10
26.625773436608764
20
24.967283078054518
30
0
10
23.098988378154313
20
27.60708079868278
30
0
10
19.622257723217029
20
30.423489668183908
30
0
10
16.240043133635446
20
33.425446087493668
30
0
10
12.994912626154029
20
36.617276272292997
30
0
10
9.9205906248296003
20
39.995107737798641
30
0
10
7.0351837739173382
20
43.543333452193551
30
0
10
4.3343863096518973
20
47.231086170909961
30
0
10
1.7982727115643793
20
51.018171209739585
30
0
10
-0.60219316896401265
20
54.860808884744799
30
0
10
-2.8983822814500559
20
58.717567862344346
30
0
10
-5.1177969116038868
20
62.554905354056572
30
0
10
-7.2764831820464355
20
66.353695398461412
30
0
10
-9.3790167983031552
20
70.110308581604386
30
0
10
-11.421054825986147
20
73.835636546531006
30
0
10
-13.39111658315379
20
77.555144126689612
30
0
10
-15.272449313598962
20
81.307834901433651
30
0
10
-17.04539535719514
20
85.147495706908046
30
0
10
-18.686364253192711
20
89.132789561575578
30
0
10
-20.165616443590189
20
93.313610390283074
30
0
10
-21.445137217805893
20
97.71779633753718
30
0
10
-22.477100976874596
20
102.33951317088395
30
0
10
-23.200452340907209
20
107.1221519745805
30
0
10
-23.545710828036761
20
111.96511450267252
30
0
10
-23.444918532159342
20
116.74560941819257
30
0
10
-22.840223815670228
20
121.33621850264154
30
0
10
-21.692669422068946
20
125.62338239536192
30
0
10
-19.991884083422541
20
129.52742519658568
30
0
10
-17.762651403579422
20
133.0162584481678
30
0
10
-15.056483488349388
20
136.08908869775001
30
0
10
-11.945389260136475
20
138.76397330470712
30
0
10
-8.5147966351525852
20
141.06483416061619
30
0
10
-4.8570450044715576
20
143.00660713800482
30
0
10
-1.0641353867131593
20
144.5890625789919
30
0
10
2.7799454906047338
20
145.80213844192284
30
0
10
6.6071989627009895
20
146.62837699395408
30
0
10
10.372671136967401
20
147.04642267125104
30
0
10
14.064096562410517
20
147.03432771135516
30
0
10
17.695412769376819
20
146.57115071452628
30
0
10
21.295341414058512
20
145.63799529462955
30
0
10
24.898347198475292
20
144.21913129967788
30
0
10
28.533046966223591
20
142.30341106335433
30
0
10
32.217578485185228
20
139.88443493473068
30
0
10
35.962993855800136
20
136.95911983005254
30
0
10
39.012278033907677
20
134.21318494864553
30
0
10
41.32980145670065
20
131.92571699307572
30
0
10
42.888388253905291
20
130.29946402083058
30
0
10
43.671074582100914
20
129.4610189221896
30
0
0
SPLINE
5
105
100
AcDbEntity
8
0
100
AcDbSpline
70
4
71
5
72
66
73
60
74
0
42
0.000000001
43
0.0000000001
44
0.0000000001
40
0
40
0
40
0
40
0
40
0
40
0
40
0.018181818181818181
40
0.036363636363636362
40
0.054545454545454543
40
0.072727272727272724
40
0.090909090909090912
40
0.1090909090909091
40
0.12727272727272729
40
0.14545454545454548
40
0.16363636363636366
40
0.18181818181818185
40
0.20000000000000004
40
0.21818181818181823
40
0.23636363636363641
40
0.25454545454545457
40
0.27272727272727276
40
0.29090909090909095
40
0.30909090909090914
40
0.32727272727272733
40
0.34545454545454551
40
0.3636363636363637
40
0.38181818181818189
40
0.40000000000000008
40
0.41818181818181827
40
0.43636363636363645
40
0.45454545454545464
40
0.47272727272727283
40
0.49090909090909102
40
0.50909090909090915
40
0.52727272727272734
40
0.54545454545454553
40
0.56363636363636371
40
0.5818181818181819
40
0.60000000000000009
40
0.61818181818181828
40
0.63636363636363646
40
0.65454545454545465
40
0.67272727272727284
40
0.69090909090909103
40
0.70909090909090922
40
0.7272727272727274
40
0.74545454545454559
40
0.76363636363636378
40
0.78181818181818197
40
0.80000000000000016
40
0.81818181818181834
40
0.83636363636363653
40
0.85454545454545472
40
0.87272727272727291
40
0.89090909090909109
40
0.90909090909090928
40
0.92727272727272747
40
0.94545454545454566
40
0.96363636363636385
40
0.98181818181818203
40
1
40
1
40
1
40
1
40
1
40
1
41
1
41
1
41
1
41
1
41
1
41
1
41
1
41
1
41
1
41
1
41
1
41
1
41
1
41
1
41
1
41
1
41
1
41
1
41
1
41
1
41
1
41
1
41
1
41
1
41
1
41
1
41
1
41
1
41
1
41
1
41
1
41
1
41
1
41
1
41
1
41
1
41
1
41
1
41
1
41
1
41
1
41
1
41
1
41
1
41
1
41
1
41
1
41
1
41
1
41
1
41
1
41
1
41
1
41
1
41
1
41
1
41
1
41
1
41
1
41
1
10
44.000000655651093
20
-4.4159455626464705
30
0
10
43.347415589393762
20
-3.8721451023261384
30
0
10
42.047224531000921
20
-2.8037562609057867
30
0
10
40.111874347432718
20
-1.2588075679109956
30
0
10
37.56130345067951
20
0.68577830237016568
30
0
10
34.417194753395876
20
2.9369389148224005
30
0
10
31.299987323935333
20
5.0469152055974575
30
0
10
28.1748849363738
20
7.0935020742492689
30
0
10
24.984380400310343
20
9.2055788566427825
30
0
10
21.665595202565257
20
11.529158041214934
30
0
10
18.1665359091627
20
14.195622871612262
30
0
10
14.463077646811781
20
17.288556197588406
30
0
10
10.574857479269975
20
20.812644505834452
30
0
10
6.5533832086794641
20
24.714612304342442
30
0
10
2.4712298872160687
20
28.902140368737506
30
0
10
-1.5893786955968388
20
33.263897590350169
30
0
10
-5.5470922590739491
20
37.687973843768809
30
0
10
-9.3338456762513324
20
42.083639563879871
30
0
10
-12.899660601738523
20
46.389705605140207
30
0
10
-16.212118733992185
20
50.57353305157983
30
0
10
-19.2576603570812
20
54.633187636576281
30
0
10
-22.041719265323572
20
58.597670940134208
30
0
10
-24.590492110489887
20
62.529705334411346
30
0
10
-26.948757023306701
20
66.522459957239079
30
0
10
-29.164631944422716
20
70.676089206396981
30
0
10
-31.275403902982376
20
75.076159088028362
30
0
10
-33.294946032510403
20
79.773939603216945
30
0
10
-35.195532504232467
20
84.759480579347994
30
0
10
-36.910581993531352
20
89.961892839379118
30
0
10
-38.360591880531786
20
95.280033904794607
30
0
10
-39.473525012843318
20
100.60558989738645
30
0
10
-40.206191011798474
20
105.84818939867682
30
0
10
-40.568269310995603
20
110.96211016922302
30
0
10
-40.63640946914493
20
115.96515314489974
30
0
10
-40.510688207000108
20
120.90989989350038
30
0
10
-40.276995850724376
20
125.8603835264074
30
0
10
-39.9693427616645
20
130.86759331011473
30
0
10
-39.526905594845047
20
135.94337639463592
30
0
10
-38.768712036211674
20
141.04120420649616
30
0
10
-37.459379084732177
20
146.07378387047731
30
0
10
-35.363387761820981
20
150.92581290835074
30
0
10
-32.302751492944985
20
155.46845424999555
30
0
10
-28.215755329610673
20
159.57326778542046
30
0
10
-23.208588310005879
20
163.12572495799515
30
0
10
-17.501479797055147
20
166.02896847334662
30
0
10
-11.382281135572274
20
168.2082258980177
30
0
10
-5.1568098713157182
20
169.61516378895172
30
0
10
0.8979822050431594
20
170.2320348216989
30
0
10
6.585329143975529
20
170.07671910569866
30
0
10
11.828656906913825
20
169.20535254570925
30
0
10
16.636021405641419
20
167.69821759550138
30
0
10
21.072474152380693
20
165.64736982063869
30
0
10
25.229891715947183
20
163.14382328158243
30
0
10
29.197137826743166
20
160.2645212367085
30
0
10
33.032492275617699
20
157.06058532604786
30
0
10
36.771311035908369
20
153.56317536931084
30
0
10
39.699238373897209
20
150.54313885502222
30
0
10
41.862374173317505
20
148.15569274540218
30
0
10
43.289887868548298
20
146.50968169066022
30
0
10
44.000000655651093
20
145.67308115686183
30
0
0
SPLINE
5
106
100
AcDbEntity
8
0
100
AcDbSpline
70
4
71
5
72
81
73
75
74
0
42
0.000000001
43
0.0000000001
44
0.0000000001
40
0
40
0
40
0
40
0
40
0
40
0
40
0.014285714285714285
40
0.028571428571428571
40
0.042857142857142858
40
0.057142857142857141
40
0.071428571428571425
40
0.085714285714285715
40
0.10000000000000001
40
0.1142857142857143
40
0.12857142857142859
40
0.14285714285714288
40
0.15714285714285717
40
0.17142857142857146
40
0.18571428571428575
40
0.20000000000000004
40
0.21428571428571433
40
0.22857142857142862
40
0.24285714285714291
40
0.25714285714285717
40
0.27142857142857146
40
0.28571428571428575
40
0.30000000000000004
40
0.31428571428571433
40
0.32857142857142863
40
0.34285714285714292
40
0.35714285714285721
40
0.3714285714285715
40
0.38571428571428579
40
0.40000000000000008
40
0.41428571428571437
40
0.42857142857142866
40
0.44285714285714295
40
0.45714285714285724
40
0.47142857142857153
40
0.48571428571428582
40
0.50000000000000011
40
0.51428571428571435
40
0.52857142857142858
40
0.54285714285714282
40
0.55714285714285705
40
0.57142857142857129
40
0.58571428571428552
40
0.59999999999999976
40
0.61428571428571399
40
0.62857142857142823
40
0.64285714285714246
40
0.6571428571428567
40
0.67142857142857093
40
0.68571428571428517
40
0.6999999999999994
40
0.71428571428571364
40
0.72857142857142787
40
0.74285714285714211
40
0.75714285714285634
40
0.77142857142857058
40
0.78571428571428481
40
0.79999999999999905
40
0.81428571428571328
40
0.82857142857142752
40
0.84285714285714175
40
0.85714285714285599
40
0.87142857142857022
40
0.88571428571428445
40
0.89999999999999869
40
0.91428571428571292
40
0.92857142857142716
40
0.94285714285714139
40
0.95714285714285563
40
0.97142857142856986
40
0.9857142857142841
40
1
40
1
40
1
40
1
40
1
40
1
41
1
41
1
41
1
41
1
41
1
41
1
41
1
41
1
41
1
41
1
41
1
41
1
41
1
41
1
41
1
41
1
41
1
41
1
41
1
41
1
41
1
41
1
41
1
41
1
41
1
41
1
41
1
41
1
41
1
41
1
41
1
41
1
41
1
41
1
41
1
41
1
41
1
41
1
41
1
41
1
41
1
41
1
41
1
41
1
41
1
41
1
41
1
41
1
41
1
41
1
41
1
41
1
41
1
41
1
41
1
41
1
41
1
41
1
41
1
41
1
41
1
41
1
41
1
41
1
41
1
41
1
41
1
41
1
41
1
41
1
41
1
41
1
41
1
41
1
41
1
10
44.000000655651093
20
-23.218281409642287
30
0
10
43.067579254300199
20
-22.771208647790992
30
0
10
41.230475738828844
20
-21.869410038609274
30
0
10
38.558041020750885
20
-20.493753996875434
30
0
10
35.161267805334504
20
-18.613604653200838
30
0
10
31.186499919958017
20
-16.184330376634538
30
0
10
27.463165036290619
20
-13.668380393201108
30
0
10
23.952061459000532
20
-11.051007358008995
30
0
10
20.585736628996063
20
-8.3070077206957453
30
0
10
17.268097691448517
20
-5.4009520363897163
30
0
10
13.899198793285592
20
-2.2979057235619607
30
0
10
10.397113145265742
20
1.0270175837979301
30
0
10
6.7180659741689475
20
4.5799332275782003
30
0
10
2.8845392465311703
20
8.3358631110337083
30
0
10
-1.0239059939955335
20
12.243142821055276
30
0
10
-4.9022859128390959
20
16.237925316259766
30
0
10
-8.6454462357002804
20
20.255773551165809
30
0
10
-12.174881322670419
20
24.244042822724701
30
0
10
-15.467461613213715
20
28.174909450586377
30
0
10
-18.575592520153336
20
32.05513500119266
30
0
10
-21.593502172466472
20
35.913960588834627
30
0
10
-24.634363768972015
20
39.796074317153177
30
0
10
-27.795193859083682
20
43.747997736295623
30
0
10
-31.14587258465097
20
47.818173099166145
30
0
10
-34.650355556101957
20
52.018183575282528
30
0
10
-38.18191868809842
20
56.321386062318254
30
0
10
-41.575947819066705
20
60.683756588095662
30
0
10
-44.669662185009287
20
65.056475933022256
30
0
10
-47.343162195622369
20
69.400800220171448
30
0
10
-49.570697478209325
20
73.705065834126401
30
0
10
-51.411147764717064
20
77.984436785740513
30
0
10
-52.968701482442512
20
82.271818340680511
30
0
10
-54.362667248087917
20
86.611585204587854
30
0
10
-55.694457496677508
20
91.052240607839309
30
0
10
-57.013276464969316
20
95.639318305342812
30
0
10
-58.323461146075871
20
100.41195306224809
30
0
10
-59.595732665917112
20
105.39990884899062
30
0
10
-60.777045230061177
20
110.62035916449828
30
0
10
-61.800817418468192
20
116.0748997540978
30
0
10
-62.597435678633822
20
121.74605288128586
30
0
10
-63.099175206198915
20
127.59854585091681
30
0
10
-63.244333493976427
20
133.58118748044123
30
0
10
-62.981649284191661
20
139.62851490584828
30
0
10
-62.274629687032849
20
145.66250348377943
30
0
10
-61.105908012166914
20
151.59425757175137
30
0
10
-59.481697148580551
20
157.32562487157108
30
0
10
-57.424519152691701
20
162.7579614607165
30
0
10
-54.96606303700905
20
167.80069994548018
30
0
10
-52.13966635955525
20
172.38046756901423
30
0
10
-48.973752520965562
20
176.44893405249655
30
0
10
-45.482953090426051
20
179.99380275197197
30
0
10
-41.666547685844066
20
183.03996598678094
30
0
10
-37.521186820540329
20
185.63138000762959
30
0
10
-33.051154605022191
20
187.81635862820713
30
0
10
-28.278406039465569
20
189.63300420401711
30
0
10
-23.255651841672641
20
191.09099559981973
30
0
10
-18.067920278030552
20
192.16744520585038
30
0
10
-12.815621063847031
20
192.82538053352852
30
0
10
-7.6017051782309695
20
193.02723439524075
30
0
10
-2.5177646124411979
20
192.7496102025971
30
0
10
2.3708005305385051
20
191.99925435307978
30
0
10
7.0351206681461766
20
190.82335441360161
30
0
10
11.470494036874255
20
189.29148290804218
30
0
10
15.686779553260955
20
187.48079771752344
30
0
10
19.698475474611527
20
185.46127340499595
30
0
10
23.513180645046113
20
183.27783904688974
30
0
10
27.127188935778008
20
180.94506570390959
30
0
10
30.531048340160293
20
178.45921356728456
30
0
10
33.712548071064539
20
175.80576654462089
30
0
10
36.660906143714527
20
172.96912182374427
30
0
10
39.369984031683757
20
169.94037165373612
30
0
10
41.343481758203481
20
167.36017220993827
30
0
10
42.714253404370524
20
165.33601364521121
30
0
10
43.57951577343939
20
163.94702638981744
30
0
10
44.0000006556511
20
163.24264581318343
30
0
0
LINE
5
107
100
AcDbEntity
8
0
100
AcDbLine
10
43.571563070801531
20
163.2426458131834
30
0
11
44.000000655651093
21
-23.218281409642287
31
0
0
SPLINE
5
108
100
AcDbEntity
8
0
100
AcDbSpline
70
4
71
5
72
81
73
75
74
0
42
0.000000001
43
0.0000000001
44
0.0000000001
40
0
40
0
40
0
40
0
40
0
40
0
40
0.014285714285714285
40
0.028571428571428571
40
0.042857142857142858
40
0.057142857142857141
40
0.071428571428571425
40
0.085714285714285715
40
0.10000000000000001
40
0.1142857142857143
40
0.12857142857142859
40
0.14285714285714288
40
0.15714285714285717
40
0.17142857142857146
40
0.18571428571428575
40
0.20000000000000004
40
0.21428571428571433
40
0.22857142857142862
40
0.24285714285714291
40
0.25714285714285717
40
0.27142857142857146
40
0.28571428571428575
40
0.30000000000000004
40
0.31428571428571433
40
0.32857142857142863
40
0.34285714285714292
40
0.35714285714285721
40
0.3714285714285715
40
0.38571428571428579
40
0.40000000000000008
40
0.41428571428571437
40
0.42857142857142866
40
0.44285714285714295
40
0.45714285714285724
40
0.47142857142857153
40
0.48571428571428582
40
0.50000000000000011
40
0.51428571428571435
40
0.52857142857142858
40
0.54285714285714282
40
0.55714285714285705
40
0.57142857142857129
40
0.58571428571428552
40
0.59999999999999976
40
0.61428571428571399
40
0.62857142857142823
40
0.64285714285714246
40
0.6571428571428567
40
0.67142857142857093
40
0.68571428571428517
40
0.6999999999999994
40
0.71428571428571364
40
0.72857142857142787
40
0.74285714285714211
40
0.75714285714285634
40
0.77142857142857058
40
0.78571428571428481
40
0.79999999999999905
40
0.81428571428571328
40
0.82857142857142752
40
0.84285714285714175
40
0.85714285714285599
40
0.87142857142857022
40
0.88571428571428445
40
0.89999999999999869
40
0.91428571428571292
40
0.92857142857142716
40
0.94285714285714139
40
0.95714285714285563
40
0.97142857142856986
40
0.9857142857142841
40
1
40
1
40
1
40
1
40
1
40
1
41
1
41
1
41
1
41
1
41
1
41
1
41
1
41
1
41
1
41
1
41
1
41
1
41
1
41
1
41
1
41
1
41
1
41
1
41
1
41
1
41
1
41
1
41
1
41
1
41
1
41
1
41
1
41
1
41
1
41
1
41
1
41
1
41
1
41
1
41
1
41
1
41
1
41
1
41
1
41
1
41
1
41
1
41
1
41
1
41
1
41
1
41
1
41
1
41
1
41
1
41
1
41
1
41
1
41
1
41
1
41
1
41
1
41
1
41
1
41
1
41
1
41
1
41
1
41
1
41
1
41
1
41
1
41
1
41
1
41
1
41
1
41
1
41
1
41
1
41
1
10
44.000000655651093
20
-23.218281409642341
30
0
10
44.930357713872638
20
-22.766928478662763
30
0
10
46.763297666665892
20
-21.856697086359912
30
0
10
49.429382416682692
20
-20.468774547716237
30
0
10
52.817479645233433
20
-18.573035377530395
30
0
10
56.781041968063889
20
-16.125520930903811
30
0
10
60.492775630783989
20
-13.592487138767666
30
0
10
63.991814144201243
20
-10.959006662775337
30
0
10
67.345493533678322
20
-8.1995662442707946
30
0
10
70.649742825379064
20
-5.2782952232058058
30
0
10
74.004346277143256
20
-2.1598000914140054
30
0
10
77.491115449251197
20
1.1811817442638399
30
0
10
81.153796549992677
20
4.7509667256380892
30
0
10
84.970022635652143
20
8.5244737051042208
30
0
10
88.860470923559589
20
12.449673196806526
30
0
10
92.720452093146207
20
16.462236386255121
30
0
10
96.445109097246188
20
20.497243677845663
30
0
10
99.956179050655749
20
24.501690156182132
30
0
10
103.2306604992161
20
28.447646144120288
30
0
10
106.32092722999988
20
32.342113962816711
30
0
10
109.32107200113251
20
36.214767437840102
30
0
10
112.34406145477209
20
40.110814281999637
30
0
10
115.48669732877165
20
44.077221388282702
30
0
10
118.81863641347533
20
48.162751628326404
30
0
10
122.30378147010723
20
52.378822409386842
30
0
10
125.81553218829214
20
56.698208557097509
30
0
10
129.18947845430918
20
61.076130089064762
30
0
10
132.26306556894284
20
65.463020251388514
30
0
10
134.916573253217
20
69.819584584456521
30
0
10
137.12430500582107
20
74.134041261627885
30
0
10
138.94507025163026
20
78.42182471211585
30
0
10
140.48290510351745
20
82.716318646162236
30
0
10
141.85691299694241
20
87.062445576851829
30
0
10
143.16828240225263
20
91.509174257520442
30
0
10
144.46600778885784
20
96.102264077567625
30
0
10
145.75424626247582
20
100.88086931932142
30
0
10
147.00358247954242
20
105.87461908952649
30
0
10
148.16089228589885
20
111.1004429368256
30
0
10
149.15958763138806
20
116.55963061854551
30
0
10
149.93013601651234
20
122.23438467758866
30
0
10
150.40497544570155
20
128.08912156574922
30
0
10
150.52263930947629
20
134.07236709062875
30
0
10
150.23216772222423
20
140.11842351123465
30
0
10
149.49742673730174
20
146.14909930706762
30
0
10
148.30145836265007
20
152.07541996665952
30
0
10
146.65092647498869
20
157.79926277919793
30
0
10
144.56880620548989
20
163.22208836258892
30
0
10
142.08720242939054
20
168.25347590450053
30
0
10
139.23978953305294
20
172.82020662369814
30
0
10
136.05521271604971
20
176.87408136981429
30
0
10
132.54815990160242
20
180.40287086728401
30
0
10
128.71779632397931
20
183.43146386213209
30
0
10
124.56057053340452
20
186.00380074854928
30
0
10
120.08054457175055
20
188.16821451746162
30
0
10
115.29949811014832
20
189.96290801500754
30
0
10
110.27009683114635
20
191.39780223286971
30
0
10
105.07747328202555
20
192.45040054554556
30
0
10
99.82220602283715
20
193.08419228201913
30
0
10
94.607417583505779
20
193.26208375675498
30
0
10
89.524806505859516
20
192.96109953422601
30
0
10
84.639741199627423
20
192.18828648315321
30
0
10
79.980874094739406
20
190.99096434072467
30
0
10
75.552587188457792
20
189.43872650288478
30
0
10
71.344667093666658
20
187.60868472994366
30
0
10
67.342294142002785
20
185.57074622006178
30
0
10
63.53766310055321
20
183.36980465519974
30
0
10
59.934413098485862
20
181.02044797351016
30
0
10
56.542013228722595
20
178.51897984187326
30
0
10
53.372740857338513
20
175.85094043515375
30
0
10
50.43744955710261
20
173.00077665393047
30
0
10
47.742318724689632
20
169.95960905059371
30
0
10
45.780698997162716
20
167.3703677542039
30
0
10
44.419243731326958
20
165.33993125920549
30
0
10
43.560373511033326
20
163.94698240599303
30
0
10
43.143130009869822
20
163.24067695249249
30
0
0
SPLINE
5
109
100
AcDbEntity
8
0
100
AcDbSpline
70
4
71
5
72
66
73
60
74
0
42
0.000000001
43
0.0000000001
44
0.0000000001
40
0
40
0
40
0
40
0
40
0
40
0
40
0.018181818181818181
40
0.036363636363636362
40
0.054545454545454543
40
0.072727272727272724
40
0.090909090909090912
40
0.1090909090909091
40
0.12727272727272729
40
0.14545454545454548
40
0.16363636363636366
40
0.18181818181818185
40
0.20000000000000004
40
0.21818181818181823
40
0.23636363636363641
40
0.25454545454545457
40
0.27272727272727276
40
0.29090909090909095
40
0.30909090909090914
40
0.32727272727272733
40
0.34545454545454551
40
0.3636363636363637
40
0.38181818181818189
40
0.40000000000000008
40
0.41818181818181827
40
0.43636363636363645
40
0.45454545454545464
40
0.47272727272727283
40
0.49090909090909102
40
0.50909090909090915
40
0.52727272727272734
40
0.54545454545454553
40
0.56363636363636371
40
0.5818181818181819
40
0.60000000000000009
40
0.61818181818181828
40
0.63636363636363646
40
0.65454545454545465
40
0.67272727272727284
40
0.69090909090909103
40
0.70909090909090922
40
0.7272727272727274
40
0.74545454545454559
40
0.76363636363636378
40
0.78181818181818197
40
0.80000000000000016
40
0.81818181818181834
40
0.83636363636363653
40
0.85454545454545472
40
0.87272727272727291
40
0.89090909090909109
40
0.90909090909090928
40
0.92727272727272747
40
0.94545454545454566
40
0.96363636363636385
40
0.98181818181818203
40
1
40
1
40
1
40
1
40
1
40
1
41
1
41
1
41
1
41
1
41
1
41
1
41
1
41
1
41
1
41
1
41
1
41
1
41
1
41
1
41
1
41
1
41
1
41
1
41
1
41
1
41
1
41
1
41
1
41
1
41
1
41
1
41
1
41
1
41
1
41
1
41
1
41
1
41
1
41
1
41
1
41
1
41
1
41
1
41
1
41
1
41
1
41
1
41
1
41
1
41
1
41
1
41
1
41
1
41
1
41
1
41
1
41
1
41
1
41
1
41
1
41
1
41
1
41
1
41
1
41
1
10
43.913595584629654
20
-4.4161440985033238
30
0
10
44.563674755911265
20
-3.8693504624645518
30
0
10
45.858942364950764
20
-2.7949979477984761
30
0
10
47.787172388606976
20
-1.2411717757655285
30
0
10
50.328780119220689
20
0.71511456573620391
30
0
10
53.462510536246924
20
2.9806999816487094
30
0
10
56.569988774069024
20
5.1049789434093684
30
0
10
59.685653189132807
20
7.1659054332158636
30
0
10
62.866418106915461
20
9.2926216971237512
30
0
10
66.174490384522926
20
11.631427636459861
30
0
10
69.661259142661024
20
14.313944040466493
30
0
10
73.350464899624569
20
17.423863740827951
30
0
10
77.222449262521337
20
20.965782933734278
30
0
10
81.22594979759603
20
24.886189988527363
30
0
10
85.288816466775032
20
29.092433141093004
30
0
10
89.329337964558206
20
33.472804603544098
30
0
10
93.266679145898792
20
37.915021591525765
30
0
10
97.033192545125047
20
42.32804270850599
30
0
10
100.57918153583087
20
46.65044978238457
30
0
10
103.87237814907373
20
50.849455265357982
30
0
10
106.89923170091383
20
54.923062598320172
30
0
10
109.66504265317243
20
58.900298025739531
30
0
10
112.19571914389292
20
62.844003642713268
30
0
10
114.53561067748106
20
66.847553378657338
30
0
10
116.73237443263235
20
71.011321697085293
30
0
10
118.82290383103151
20
75.421045051073662
30
0
10
120.82083625132492
20
80.12805665354125
30
0
10
122.69849188295379
20
85.122279024460198
30
0
10
124.38961587154407
20
90.332517764602613
30
0
10
125.81517123123703
20
95.657266113633611
30
0
10
126.90361932059177
20
100.9878802943831
30
0
10
127.6121855137353
20
106.23379136367214
30
0
10
127.95075925602531
20
111.34932204613364
30
0
10
127.99590749362714
20
116.35262532839249
30
0
10
127.84746425495271
20
121.29674211993816
30
0
10
127.59102469869819
20
126.24609956015703
30
0
10
127.2603645088009
20
131.25184266983408
30
0
10
126.79460653961766
20
136.32553896364567
30
0
10
126.01299420742794
20
141.41982871138262
30
0
10
124.68054814610485
20
146.44633827029236
30
0
10
122.56228172995043
20
151.28868406549105
30
0
10
119.48080232728005
20
155.81721246002476
30
0
10
115.37498588051645
20
159.90320109255941
30
0
10
110.35154661609099
20
163.43261060150337
30
0
10
104.63115667372159
20
166.30959676679237
30
0
10
98.502007971258394
20
168.46071074907488
30
0
10
92.270136938904059
20
169.83902498288839
30
0
10
86.21257399979244
20
170.42806504746991
30
0
10
80.526000858748134
20
170.24661509025401
30
0
10
75.286732776409778
20
169.35116231491759
30
0
10
70.486344992581266
20
167.82195130703326
30
0
10
66.059363645780678
20
165.75073771959489
30
0
10
61.913494887359342
20
163.22811243846061
30
0
10
57.959522336844174
20
160.33060954130701
30
0
10
54.138931892163029
20
157.10908230688329
30
0
10
50.416224760116535
20
153.59452774950412
30
0
10
47.50220674542642
20
150.56106799960784
30
0
10
45.350065160361346
20
148.16370653105392
30
0
10
43.930130689111095
20
146.51115279826348
30
0
10
43.223869950603728
20
145.671297815066
30
0
0
SPLINE
5
110
100
AcDbEntity
8
0
100
AcDbSpline
70
4
71
5
72
61
73
55
74
0
42
0.000000001
43
0.0000000001
44
0.0000000001
40
0
40
0
40
0
40
0
40
0
40
0
40
0.02
40
0.040000000000000001
40
0.059999999999999998
40
0.080000000000000002
40
0.10000000000000001
40
0.12000000000000001
40
0.14000000000000001
40
0.16
40
0.17999999999999999
40
0.19999999999999998
40
0.21999999999999997
40
0.23999999999999996
40
0.25999999999999995
40
0.27999999999999997
40
0.29999999999999999
40
0.32000000000000001
40
0.34000000000000002
40
0.36000000000000004
40
0.38000000000000006
40
0.40000000000000008
40
0.4200000000000001
40
0.44000000000000011
40
0.46000000000000013
40
0.48000000000000015
40
0.50000000000000011
40
0.52000000000000013
40
0.54000000000000015
40
0.56000000000000016
40
0.58000000000000018
40
0.6000000000000002
40
0.62000000000000022
40
0.64000000000000024
40
0.66000000000000025
40
0.68000000000000027
40
0.70000000000000029
40
0.72000000000000031
40
0.74000000000000032
40
0.76000000000000034
40
0.78000000000000036
40
0.80000000000000038
40
0.8200000000000004
40
0.84000000000000041
40
0.86000000000000043
40
0.88000000000000045
40
0.90000000000000047
40
0.92000000000000048
40
0.9400000000000005
40
0.96000000000000052
40
0.98000000000000054
40
1
40
1
40
1
40
1
40
1
40
1
41
1
41
1
41
1
41
1
41
1
41
1
41
1
41
1
41
1
41
1
41
1
41
1
41
1
41
1
41
1
41
1
41
1
41
1
41
1
41
1
41
1
41
1
41
1
41
1
41
1
41
1
41
1
41
1
41
1
41
1
41
1
41
1
41
1
41
1
41
1
41
1
41
1
41
1
41
1
41
1
41
1
41
1
41
1
41
1
41
1
41
1
41
1
41
1
41
1
41
1
41
1
41
1
41
1
41
1
41
1
10
43.828090285730433
20
14.190198697445222
30
0
10
44.501900544597731
20
14.549806040657076
30
0
10
45.853891314084898
20
15.284098512165862
30
0
10
47.894989029987286
20
16.430770231942496
30
0
10
50.642685879194012
20
18.050193773901853
30
0
10
54.118418580596447
20
20.226378014275895
30
0
10
57.627124427637462
20
22.55700626574334
30
0
10
61.152610381911501
20
25.046616560160693
30
0
10
64.667227159537006
20
27.702593548164366
30
0
10
68.130978455628664
20
30.534949798004526
30
0
10
71.499362011098242
20
33.552417295204073
30
0
10
74.729790377801976
20
36.759126590849462
30
0
10
77.788557283567641
20
40.151050262363938
30
0
10
80.657627996562098
20
43.712498234667088
30
0
10
83.341450083762339
20
47.412623376015546
30
0
10
85.860133567639721
20
51.211322993223376
30
0
10
88.242915477278828
20
55.064951298606111
30
0
10
90.521356826297605
20
58.932221559484674
30
0
10
92.723113753994056
20
62.779717726757852
30
0
10
94.864320105830473
20
66.58838778000765
30
0
10
96.949568217783508
20
70.354623370998937
30
0
10
98.974465149393154
20
74.089296070061835
30
0
10
100.92741331774151
20
77.817817682934219
30
0
10
102.79148090477257
20
81.579114390782919
30
0
10
104.54676328356349
20
85.426882126146623
30
0
10
106.16940065987519
20
89.419674879430758
30
0
10
107.62942450501941
20
93.607249382190147
30
0
10
108.88869258119719
20
98.017268790532896
30
0
10
109.89940660532409
20
102.64367915377404
30
0
10
110.60077198527208
20
107.42959157736502
30
0
10
110.92377126637587
20
112.27408958395402
30
0
10
110.80101154075092
20
117.05407083642625
30
0
10
110.17522732487106
20
121.64185260777617
30
0
10
109.00798362920918
20
125.92369771056266
30
0
10
107.28927544143497
20
129.81988342574869
30
0
10
105.04403356439879
20
133.2984355256645
30
0
10
102.32377320625409
20
136.35879728729896
30
0
10
99.200419547481275
20
139.01935679228774
30
0
10
95.75928967054999
20
141.30442825877179
30
0
10
92.092653354555182
20
143.2293717420186
30
0
10
88.292511702047875
20
144.79438037205
30
0
10
84.44289679326458
20
145.9897781697141
30
0
10
80.611886801005284
20
146.79842007052366
30
0
10
76.844533281491096
20
147.19915731921088
30
0
10
73.153202415904431
20
147.17009875025241
30
0
10
69.52405305608481
20
146.690239135898
30
0
10
65.928450686388828
20
145.74055030079504
30
0
10
62.332003255737114
20
144.30514387846387
30
0
10
58.706145451171594
20
142.37274081321056
30
0
10
55.032769105562977
20
139.93685817059497
30
0
10
51.300836403308665
20
136.99436211011479
30
0
10
48.264203211367459
20
134.23444341033652
30
0
10
45.9572161891723
20
131.93634956056107
30
0
10
44.40611920281227
20
130.3029513626125
30
0
10
43.627294166117203
20
129.46091832644566
30
0
0
SPLINE
5
111
100
AcDbEntity
8
0
100
AcDbSpline
70
4
71
5
72
51
73
45
74
0
42
0.000000001
43
0.0000000001
44
0.0000000001
40
0
40
0
40
0
40
0
40
0
40
0
40
0.025000000000000001
40
0.050000000000000003
40
0.075000000000000011
40
0.10000000000000001
40
0.125
40
0.14999999999999999
40
0.17499999999999999
40
0.19999999999999998
40
0.22499999999999998
40
0.24999999999999997
40
0.27499999999999997
40
0.29999999999999999
40
0.32500000000000001
40
0.35000000000000003
40
0.37500000000000006
40
0.40000000000000008
40
0.4250000000000001
40
0.45000000000000012
40
0.47500000000000014
40
0.50000000000000011
40
0.52500000000000013
40
0.55000000000000016
40
0.57500000000000018
40
0.6000000000000002
40
0.62500000000000022
40
0.65000000000000024
40
0.67500000000000027
40
0.70000000000000029
40
0.72500000000000031
40
0.75000000000000033
40
0.77500000000000036
40
0.80000000000000038
40
0.8250000000000004
40
0.85000000000000042
40
0.87500000000000044
40
0.90000000000000047
40
0.92500000000000049
40
0.95000000000000051
40
0.97500000000000053
40
1
40
1
40
1
40
1
40
1
40
1
41
1
41
1
41
1
41
1
41
1
41
1
41
1
41
1
41
1
41
1
41
1
41
1
41
1
41
1
41
1
41
1
41
1
41
1
41
1
41
1
41
1
41
1
41
1
41
1
41
1
41
1
41
1
41
1
41
1
41
1
41
1
41
1
41
1
41
1
41
1
41
1
41
1
41
1
41
1
41
1
41
1
41
1
41
1
41
1
41
1
10
43.737057277076623
20
33.999396332736914
30
0
10
44.301264141297388
20
34.257412422473259
30
0
10
45.438454744794647
20
34.813328090501876
30
0
10
47.170571474309426
20
35.766852653472185
30
0
10
49.532774010092844
20
37.277759381372071
30
0
10
52.570297316250183
20
39.558447989734958
30
0
10
55.682750326765586
20
42.20707562393487
30
0
10
58.850068554813184
20
45.173641363073081
30
0
10
62.038246056305994
20
48.372572003764972
30
0
10
65.196164402363266
20
51.674698523750422
30
0
10
68.265261072615161
20
54.938512535562239
30
0
10
71.188271388482576
20
58.038513210658493
30
0
10
73.918965633085335
20
60.896855705685724
30
0
10
76.430036309779496
20
63.508826176154216
30
0
10
78.72546771578601
20
65.983380657128009
30
0
10
80.837713725418112
20
68.532604129514596
30
0
10
82.806974034099099
20
71.4008121395713
30
0
10
84.664321632184709
20
74.80683133736332
30
0
10
86.41496941346341
20
78.886182520841771
30
0
10
88.017026024907906
20
83.619425545141297
30
0
10
89.390295443478024
20
88.853569778567802
30
0
10
90.43501411463285
20
94.354241176749952
30
0
10
91.047084030343527
20
99.846883865255791
30
0
10
91.134984530435048
20
105.06292535618533
30
0
10
90.635490605190881
20
109.7823221988148
30
0
10
89.531312065821595
20
113.88128165188654
30
0
10
87.864435050003763
20
117.36814244244889
30
0
10
85.715785224712761
20
120.32854776342904
30
0
10
83.187808618640574
20
122.87793936425339
30
0
10
80.386868035457283
20
125.11437912274572
30
0
10
77.403937186738261
20
127.06441334541638
30
0
10
74.301697361495826
20
128.65271198564136
30
0
10
71.125421689991612
20
129.75860336881419
30
0
10
67.910258127896967
20
130.26021330324451
30
0
10
64.689353090784692
20
130.08007775435846
30
0
10
61.502961200160549
20
129.23897573214364
30
0
10
58.395880503899278
20
127.83488592090458
30
0
10
55.411895355367157
20
126.00356222222628
30
0
10
52.589686786974895
20
123.88815875887146
30
0
10
49.957083038143551
20
121.59934888519001
30
0
10
47.529707060641655
20
119.20075062068267
30
0
10
45.757968557414031
20
117.22037944293359
30
0
10
44.525772983610146
20
115.70533513216338
30
0
10
43.747206174087879
20
114.68211006357254
30
0
10
43.368646790732384
20
114.16719747242951
30
0
0
ENDSEC
0
SECTION
2
OBJECTS
0
DICTIONARY
5
C
100
AcDbDictionary
3
ACAD_GROUP
350
D
3
ACAD_MLINESTYLE
350
17
0
DICTIONARY
5
D
100
AcDbDictionary
0
DICTIONARY
5
1A
330
C
100
AcDbDictionary
0
DICTIONARY
5
17
100
AcDbDictionary
0
ENDSEC
0
EOF
